<?xml version="1.0" encoding="utf-8"?>
<!-- Generator: Adobe Illustrator 15.0.0, SVG Export Plug-In . SVG Version: 6.00 Build 0)  -->
<!DOCTYPE svg PUBLIC "-//W3C//DTD SVG 1.1//EN" "http://www.w3.org/Graphics/SVG/1.1/DTD/svg11.dtd">
<svg version="1.1" id="Layer_1" xmlns="http://www.w3.org/2000/svg" xmlns:xlink="http://www.w3.org/1999/xlink" x="0px" y="0px"
	 width="512px" height="512px" viewBox="0 0 512 512" enable-background="new 0 0 512 512" xml:space="preserve">
<g>
	<path d="M506.637,242.501c-5.362-6.347-11.263-12.33-17.171-18.193c-31.897-31.679-68.549-59.921-108.648-80.411
		c-25.618-13.08-53.038-23.655-81.451-28.721c-14.453-2.586-28.617-3.912-43.474-3.938c-14.447,0.025-28.908,1.353-43.361,3.938
		c-28.412,5.065-55.775,15.641-81.393,28.721c-40.102,20.489-76.724,48.733-108.622,80.411
		c-5.909,5.862-11.794,11.847-17.155,18.193c-7.147,8.484-7.147,18.515,0,27c16.344,19.353,35.774,36.575,55.542,52.321
		c42.57,33.915,91.25,62.278,144.993,73.711c16.621,3.524,33.299,5.244,49.998,5.228c16.904,0.018,33.488-1.702,50.107-5.228
		c53.744-11.433,102.534-39.796,145.104-73.711c19.768-15.745,39.194-32.969,55.538-52.321
		C513.79,261.018,513.783,250.987,506.637,242.501z M255.892,354.552c-54.334-0.104-98.348-44.177-98.348-98.554
		c0-54.351,44.014-98.438,98.348-98.543c54.809,0.104,98.347,44.192,98.347,98.543C354.24,310.374,310.701,354.445,255.892,354.552z
		"/>
	<path d="M255.86,217.881c-21.06,0-38.106,17.059-38.106,38.115c0,21.068,17.047,38.123,38.106,38.123
		c21.058,0,38.124-17.055,38.124-38.123C293.984,234.94,276.917,217.881,255.86,217.881z"/>
</g>
</svg>
