<?xml version="1.0" encoding="UTF-8" standalone="no"?>
<!-- Created with Inkscape (http://www.inkscape.org/) -->

<svg
   xmlns:dc="http://purl.org/dc/elements/1.1/"
   xmlns:cc="http://creativecommons.org/ns#"
   xmlns:rdf="http://www.w3.org/1999/02/22-rdf-syntax-ns#"
   xmlns:svg="http://www.w3.org/2000/svg"
   xmlns="http://www.w3.org/2000/svg"
   xmlns:sodipodi="http://sodipodi.sourceforge.net/DTD/sodipodi-0.dtd"
   xmlns:inkscape="http://www.inkscape.org/namespaces/inkscape"
   id="svg3166"
   version="1.1"
   inkscape:version="0.48.0 r9654"
   width="236.41251"
   height="60.909126"
   xml:space="preserve"
   sodipodi:docname="logo.svg"><metadata
     id="metadata3172"><rdf:RDF><cc:Work
         rdf:about=""><dc:format>image/svg+xml</dc:format><dc:type
           rdf:resource="http://purl.org/dc/dcmitype/StillImage" /><dc:title></dc:title></cc:Work></rdf:RDF></metadata><defs
     id="defs3170"><clipPath
       clipPathUnits="userSpaceOnUse"
       id="clipPath3182"><path
         d="M 0,327.273 0,0 l 1731.3,0 0,327.273 -1731.3,0 z"
         id="path3184"
         inkscape:connector-curvature="0" /></clipPath></defs><sodipodi:namedview
     pagecolor="#ffffff"
     bordercolor="#666666"
     borderopacity="1"
     objecttolerance="10"
     gridtolerance="10"
     guidetolerance="10"
     inkscape:pageopacity="0"
     inkscape:pageshadow="2"
     inkscape:window-width="1158"
     inkscape:window-height="739"
     id="namedview3168"
     showgrid="false"
     inkscape:zoom="0.26464646"
     inkscape:cx="124.21755"
     inkscape:cy="40.229009"
     inkscape:window-x="0"
     inkscape:window-y="0"
     inkscape:window-maximized="0"
     inkscape:current-layer="g3174"
     fit-margin-top="10"
     fit-margin-left="10"
     fit-margin-right="10"
     fit-margin-bottom="10" /><g
     id="g3174"
     inkscape:groupmode="layer"
     inkscape:label="ink_ext_XXXXXX"
     transform="matrix(1.25,0,0,-1.25,-258.28245,515.68011)"><g
       id="g3176"
       transform="matrix(0.1,0,0,0.1,214.62596,371.81679)"><g
         id="g3178"><g
           id="g3180"
           clip-path="url(#clipPath3182)"><path
             d="m 164.363,70.2617 c -58.078,0 -101.8982,42.3673 -101.8982,98.5503 0,34.516 21.5743,99.797 103.1802,99.797 70.007,0 101.507,-57.371 101.507,-98.113 0,-23.973 -10.742,-52.461 -26.117,-69.277 C 223.723,82.4297 193.609,70.2617 164.363,70.2617 z m -0.41,257.0113 C 56.3242,327.273 0,247.559 0,168.812 0,79.4414 69.5664,12.0312 161.848,12.0312 c 96.941,0 167.328,66.4727 167.328,158.0508 0,76.203 -57.903,157.191 -165.223,157.191"
             style="fill:#325cb3;fill-opacity:1;fill-rule:nonzero;stroke:none"
             id="path3186"
             inkscape:connector-curvature="0" /><path
             d="m 656.363,323.477 -9.922,0 0,-206.633 -176.695,203.222 -2.965,3.411 -47.797,0 0,-307.6372 58.684,0 0,204.9182 175.043,-201.5002 2.937,-3.418 49.895,0 0,307.6372 -49.18,0"
             style="fill:#204476;fill-opacity:1;fill-rule:nonzero;stroke:none"
             id="path3188"
             inkscape:connector-curvature="0" /><path
             d="m 925.344,59.7148 0,265.7772 -64.188,0 0,-325.492 201.784,0 0,59.7148 -137.596,0"
             style="fill:#461f35;fill-opacity:1;fill-rule:nonzero;stroke:none"
             id="path3190"
             inkscape:connector-curvature="0" /><path
             d="m 1308.12,149.355 -64.91,0 31.25,75.622 33.66,-75.622 z m -8.81,172.036 -2.6,5.882 -43.93,0 -2.57,-6.027 L 1118.88,13.8164 1112.98,0 l 66.39,0 2.59,6.02344 35.94,84.06246 117.03,0 38.15,-84.25778 2.63,-5.82812 66.49,0 -6.19,13.9453 -136.7,307.4457"
             style="fill:#971a1f;fill-opacity:1;fill-rule:nonzero;stroke:none"
             id="path3192"
             inkscape:connector-curvature="0" /><path
             d="m 1621.32,200.641 c -6.74,-3.907 -19.94,-6.028 -36.62,-6.028 l -19.2,0 0,72.035 19.2,0 c 12.13,0 28.75,0 39.33,-4.902 9.69,-4.523 15.73,-15.676 15.73,-29.09 0,-20.129 -12.91,-29.097 -18.44,-32.015 z m -22.25,-141.8246 -33.57,0 0,76.5236 31.29,0 c 24.33,0 36.89,-1.485 46.36,-5.488 21.41,-8.817 23.07,-27.129 23.07,-32.5395 0,-11.5195 -6.66,-27.5156 -25.45,-34.6445 -9.61,-3.8516 -30.49,-3.8516 -41.7,-3.8516 z m 74.77,115.7146 c 20.6,14.879 31.03,35.555 31.03,61.699 0,38.442 -21.17,68.29 -58.02,81.911 -16.27,6.117 -32.93,7.351 -54.54,7.351 l -90.11,0 0,-325.492 94.59,0 c 33.47,0 48.75,0 68.28,6.84375 31.97,10.91015 66.23,39.37505 66.23,86.43745 0,36.6488 -21.9,66.7068 -57.46,81.2498"
             style="fill:#c41e25;fill-opacity:1;fill-rule:nonzero;stroke:none"
             id="path3194"
             inkscape:connector-curvature="0" /><path
             d="m 780.367,59.7148 c -16.476,0 -29.863,-13.3984 -29.863,-29.8632 C 750.504,13.3984 763.891,0 780.367,0 c 16.485,0 29.863,13.3984 29.863,29.8516 0,16.4648 -13.378,29.8632 -29.863,29.8632"
             style="fill:#461f35;fill-opacity:1;fill-rule:nonzero;stroke:none"
             id="path3196"
             inkscape:connector-curvature="0" /></g></g></g></g></svg>